<svg xmlns="http://www.w3.org/2000/svg" xmlns:xlink="http://www.w3.org/1999/xlink" version="1.1" width="776" height="1016"><defs/><g transform=" scale(0.89) translate(-501.3325,19.539999999999964)"><rect x="858" y="438" width="4" height="4" fill="#000000" stroke="none" pointer-events="none"/><rect x="858" y="538" width="4" height="4" fill="#000000" stroke="none" pointer-events="none"/><rect x="858" y="438" width="4" height="4" fill="#000000" stroke="none" pointer-events="none"/><rect x="858" y="538" width="4" height="4" fill="#000000" stroke="none" pointer-events="none"/><path d="M 824 483.07 C 896 483.07 896 483.07 896 483.07" fill="none" stroke="#000000" stroke-width="4" stroke-linecap="round" stroke-miterlimit="10" pointer-events="none"/><path d="M 842 498 C 878 498 878 498 878 498" fill="none" stroke="#000000" stroke-width="4" stroke-linecap="round" stroke-miterlimit="10" pointer-events="none"/><path d="M 860 442 L 860 482" fill="none" stroke="#000000" stroke-width="4" stroke-linejoin="round" stroke-linecap="square" stroke-miterlimit="10" pointer-events="none"/><path d="M 860 498 L 860 538" fill="none" stroke="#000000" stroke-width="4" stroke-linejoin="round" stroke-linecap="square" stroke-miterlimit="10" pointer-events="none"/><path d="M 824 462 C 844 462 844 462 844 462" fill="none" stroke="#000000" stroke-width="3" stroke-linecap="round" stroke-miterlimit="10" pointer-events="none"/><path d="M 834 452 C 834 472 834 472 834 472" fill="none" stroke="#000000" stroke-width="3" stroke-linecap="round" stroke-miterlimit="10" pointer-events="none"/><path d="M 824 483.07 C 896 483.07 896 483.07 896 483.07" fill="none" stroke="#000000" stroke-width="4" stroke-linecap="round" stroke-miterlimit="10" pointer-events="none"/><path d="M 842 498 C 878 498 878 498 878 498" fill="none" stroke="#000000" stroke-width="4" stroke-linecap="round" stroke-miterlimit="10" pointer-events="none"/><path d="M 860 442 L 860 482" fill="none" stroke="#000000" stroke-width="4" stroke-linecap="square" stroke-miterlimit="10" pointer-events="none"/><path d="M 860 498 L 860 538" fill="none" stroke="#000000" stroke-width="4" stroke-linecap="square" stroke-miterlimit="10" pointer-events="none"/><path d="M 824 462 C 844 462 844 462 844 462" fill="none" stroke="#000000" stroke-width="3" stroke-linecap="round" stroke-miterlimit="10" pointer-events="none"/><path d="M 834 452 C 834 472 834 472 834 472" fill="none" stroke="#000000" stroke-width="3" stroke-linecap="round" stroke-miterlimit="10" pointer-events="none"/><rect x="940" y="460" width="26" height="26" fill-opacity="0" fill="#dae2f2" stroke="none" pointer-events="none"/><g fill="#000000" font-family="Arial,Helvetica" font-weight="bold" text-anchor="middle" font-size="32px"><text x="953" y="485">5V</text></g><rect x="600" y="500" width="118" height="28" fill-opacity="0" fill="#dae2f2" stroke="none" pointer-events="none"/><g fill="#000000" font-family="Arial,Helvetica" font-weight="bold" text-anchor="middle" font-size="36px"><text x="659" y="528">(digital pin)</text></g><rect x="620" y="420" width="76" height="26" fill-opacity="0" fill="#dae2f2" stroke="none" pointer-events="none"/><g fill="#000000" font-family="Arial,Helvetica" font-weight="bold" text-anchor="middle" font-size="56px"><text x="658" y="457">Arduino</text></g><rect x="1178" y="438" width="4" height="4" fill="#000000" stroke="none" transform="translate(0,500)scale(1,-1)translate(0,-500)" pointer-events="none"/><rect x="1178" y="558" width="4" height="4" fill="#000000" stroke="none" transform="translate(0,500)scale(1,-1)translate(0,-500)" pointer-events="none"/><path d="M 1164 484.51 C 1208 484.51 1196 484.51 1196 484.51" fill="none" stroke="#000000" stroke-width="4" stroke-linecap="round" stroke-miterlimit="10" transform="translate(0,500)scale(1,-1)translate(0,-500)" pointer-events="none"/><path d="M 1179.72 485.07 C 1179.72 485.07 1179.72 485.07 1164 514.51 C 1195.44 514.51 1195.44 514.51 1195.44 514.51 Z" fill="#000000" stroke="#000000" stroke-width="2.98" stroke-linejoin="round" stroke-linecap="round" stroke-miterlimit="10" transform="translate(0,500)scale(1,-1)translate(0,-500)" pointer-events="none"/><path d="M 1180 442 L 1180 558" fill="#000000" stroke="#000000" stroke-width="4" stroke-linecap="square" stroke-miterlimit="10" transform="translate(0,500)scale(1,-1)translate(0,-500)" pointer-events="none"/><path d="M 1216.49 477.54 L 1224.98 486.03 L 1230.64 471.89 Z" fill="#000000" stroke="#000000" stroke-width="2" stroke-linejoin="round" stroke-linecap="square" stroke-miterlimit="10" transform="translate(0,500)scale(1,-1)translate(0,-500)" pointer-events="none"/><path d="M 1208.01 494.45 L 1224.98 477.48" fill="none" stroke="#000000" stroke-width="4" stroke-linejoin="round" stroke-linecap="round" stroke-miterlimit="10" transform="translate(0,500)scale(1,-1)translate(0,-500)" pointer-events="none"/><path d="M 1213.14 455.43 L 1221.62 463.91 L 1227.28 449.77 Z" fill="#000000" stroke="#000000" stroke-width="2" stroke-linejoin="round" stroke-linecap="round" stroke-miterlimit="10" transform="translate(0,500)scale(1,-1)translate(0,-500)" pointer-events="none"/><path d="M 1204.65 472.43 L 1221.62 455.46" fill="none" stroke="#000000" stroke-width="4" stroke-linejoin="round" stroke-linecap="round" stroke-miterlimit="10" transform="translate(0,500)scale(1,-1)translate(0,-500)" pointer-events="none"/><rect x="1280" y="520" width="46" height="28" fill-opacity="0" fill="#dae2f2" stroke="none" pointer-events="none"/><g fill="#000000" font-family="Arial,Helvetica" font-weight="bold" text-anchor="middle" font-size="40px"><text x="1303" y="550">LED</text></g><rect x="1080" y="540" width="86" height="28" fill-opacity="0" fill="#dae2f2" stroke="none" pointer-events="none"/><g fill="#000000" font-family="Arial,Helvetica" font-weight="bold" text-anchor="middle" font-size="24px"><text x="1123" y="562">cathode</text></g><rect x="1080" y="440" width="66" height="28" fill-opacity="0" fill="#dae2f2" stroke="none" pointer-events="none"/><g fill="#000000" font-family="Arial,Helvetica" font-weight="bold" text-anchor="middle" font-size="24px"><text x="1113" y="462">anode</text></g><rect x="1018" y="618" width="4" height="4" fill="#000000" stroke="none" transform="rotate(90,1020,680)" pointer-events="none"/><rect x="1018" y="738" width="4" height="4" fill="#000000" stroke="none" transform="rotate(90,1020,680)" pointer-events="none"/><path d="M 1020 644 L 1034 650 L 1020 656" fill="none" stroke="#000000" stroke-width="4" stroke-linejoin="round" stroke-linecap="round" stroke-miterlimit="10" transform="rotate(90,1020,680)" pointer-events="none"/><path d="M 1020 656 L 1006 662 L 1020 668" fill="none" stroke="#000000" stroke-width="4" stroke-linejoin="round" stroke-linecap="round" stroke-miterlimit="10" transform="rotate(90,1020,680)" pointer-events="none"/><path d="M 1020 668 L 1034 674 L 1020 680" fill="none" stroke="#000000" stroke-width="4" stroke-linejoin="round" stroke-linecap="round" stroke-miterlimit="10" transform="rotate(90,1020,680)" pointer-events="none"/><path d="M 1020 680 L 1006 686 L 1020 692" fill="none" stroke="#000000" stroke-width="4" stroke-linejoin="round" stroke-linecap="round" stroke-miterlimit="10" transform="rotate(90,1020,680)" pointer-events="none"/><path d="M 1020 692 L 1034 698 L 1020 704" fill="none" stroke="#000000" stroke-width="4" stroke-linejoin="round" stroke-linecap="round" stroke-miterlimit="10" transform="rotate(90,1020,680)" pointer-events="none"/><path d="M 1020 704 L 1006 710 L 1020 716" fill="none" stroke="#000000" stroke-width="4" stroke-linejoin="round" stroke-linecap="round" stroke-miterlimit="10" transform="rotate(90,1020,680)" pointer-events="none"/><path d="M 1020 622 L 1020 642" fill="#000000" stroke="#000000" stroke-width="4" stroke-linecap="square" stroke-miterlimit="10" transform="rotate(90,1020,680)" pointer-events="none"/><path d="M 1020 718 L 1020 738" fill="#000000" stroke="#000000" stroke-width="4" stroke-linecap="square" stroke-miterlimit="10" transform="rotate(90,1020,680)" pointer-events="none"/><rect x="980" y="720" width="88" height="28" fill-opacity="0" fill="#dae2f2" stroke="none" pointer-events="none"/><g fill="#000000" font-family="Arial,Helvetica" font-weight="bold" text-anchor="middle" font-size="40px"><text x="1024" y="750">Resistor</text></g><path d="M 1180 560 L 1180 680 L 1080 680" fill="none" stroke="#000000" stroke-width="4" stroke-miterlimit="10" pointer-events="none"/><path d="M 960 680 L 860 680 L 860 540" fill="none" stroke="#000000" stroke-width="4" stroke-miterlimit="10" pointer-events="none"/><path d="M 860 440 L 860 300 L 1180 300 L 1180 440" fill="none" stroke="#000000" stroke-width="4" stroke-miterlimit="10" pointer-events="none"/></g></svg>