<svg xmlns="http://www.w3.org/2000/svg" xmlns:xlink="http://www.w3.org/1999/xlink" version="1.1" width="776" height="1016"><defs/><g transform=" scale(0.89) translate(-501.3325,51.11500000000001)"><rect x="858" y="438" width="4" height="4" fill="#000000" stroke="none" pointer-events="none"/><rect x="858" y="538" width="4" height="4" fill="#000000" stroke="none" pointer-events="none"/><rect x="858" y="438" width="4" height="4" fill="#000000" stroke="none" pointer-events="none"/><rect x="858" y="538" width="4" height="4" fill="#000000" stroke="none" pointer-events="none"/><path d="M 824 483.07 C 896 483.07 896 483.07 896 483.07" fill="none" stroke="#000000" stroke-width="4" stroke-linecap="round" stroke-miterlimit="10" pointer-events="none"/><path d="M 842 498 C 878 498 878 498 878 498" fill="none" stroke="#000000" stroke-width="4" stroke-linecap="round" stroke-miterlimit="10" pointer-events="none"/><path d="M 860 442 L 860 482" fill="none" stroke="#000000" stroke-width="4" stroke-linejoin="round" stroke-linecap="square" stroke-miterlimit="10" pointer-events="none"/><path d="M 860 498 L 860 538" fill="none" stroke="#000000" stroke-width="4" stroke-linejoin="round" stroke-linecap="square" stroke-miterlimit="10" pointer-events="none"/><path d="M 824 462 C 844 462 844 462 844 462" fill="none" stroke="#000000" stroke-width="3" stroke-linecap="round" stroke-miterlimit="10" pointer-events="none"/><path d="M 834 452 C 834 472 834 472 834 472" fill="none" stroke="#000000" stroke-width="3" stroke-linecap="round" stroke-miterlimit="10" pointer-events="none"/><path d="M 824 483.07 C 896 483.07 896 483.07 896 483.07" fill="none" stroke="#000000" stroke-width="4" stroke-linecap="round" stroke-miterlimit="10" pointer-events="none"/><path d="M 842 498 C 878 498 878 498 878 498" fill="none" stroke="#000000" stroke-width="4" stroke-linecap="round" stroke-miterlimit="10" pointer-events="none"/><path d="M 860 442 L 860 482" fill="none" stroke="#000000" stroke-width="4" stroke-linecap="square" stroke-miterlimit="10" pointer-events="none"/><path d="M 860 498 L 860 538" fill="none" stroke="#000000" stroke-width="4" stroke-linecap="square" stroke-miterlimit="10" pointer-events="none"/><path d="M 824 462 C 844 462 844 462 844 462" fill="none" stroke="#000000" stroke-width="3" stroke-linecap="round" stroke-miterlimit="10" pointer-events="none"/><path d="M 834 452 C 834 472 834 472 834 472" fill="none" stroke="#000000" stroke-width="3" stroke-linecap="round" stroke-miterlimit="10" pointer-events="none"/><rect x="940" y="460" width="26" height="26" fill-opacity="0" fill="#dae2f2" stroke="none" pointer-events="none"/><g fill="#000000" font-family="Arial,Helvetica" font-weight="bold" text-anchor="middle" font-size="28px"><text x="953" y="483">5V</text></g><rect x="600" y="500" width="118" height="28" fill-opacity="0" fill="#dae2f2" stroke="none" pointer-events="none"/><g fill="#000000" font-family="Arial,Helvetica" font-weight="bold" text-anchor="middle" font-size="36px"><text x="659" y="528">(digital pin)</text></g><rect x="620" y="420" width="76" height="26" fill-opacity="0" fill="#dae2f2" stroke="none" pointer-events="none"/><g fill="#000000" font-family="Arial,Helvetica" font-weight="bold" text-anchor="middle" font-size="56px"><text x="658" y="457">Arduino</text></g><rect x="1178" y="438" width="4" height="4" fill="#000000" stroke="none" transform="translate(0,500)scale(1,-1)translate(0,-500)" pointer-events="none"/><rect x="1178" y="558" width="4" height="4" fill="#000000" stroke="none" transform="translate(0,500)scale(1,-1)translate(0,-500)" pointer-events="none"/><path d="M 1164 484.51 C 1208 484.51 1196 484.51 1196 484.51" fill="none" stroke="#000000" stroke-width="4" stroke-linecap="round" stroke-miterlimit="10" transform="translate(0,500)scale(1,-1)translate(0,-500)" pointer-events="none"/><path d="M 1179.72 485.07 C 1179.72 485.07 1179.72 485.07 1164 514.51 C 1195.44 514.51 1195.44 514.51 1195.44 514.51 Z" fill="#000000" stroke="#000000" stroke-width="2.98" stroke-linejoin="round" stroke-linecap="round" stroke-miterlimit="10" transform="translate(0,500)scale(1,-1)translate(0,-500)" pointer-events="none"/><path d="M 1180 442 L 1180 558" fill="#000000" stroke="#000000" stroke-width="4" stroke-linecap="square" stroke-miterlimit="10" transform="translate(0,500)scale(1,-1)translate(0,-500)" pointer-events="none"/><path d="M 1216.49 477.54 L 1224.98 486.03 L 1230.64 471.89 Z" fill="#000000" stroke="#000000" stroke-width="2" stroke-linejoin="round" stroke-linecap="square" stroke-miterlimit="10" transform="translate(0,500)scale(1,-1)translate(0,-500)" pointer-events="none"/><path d="M 1208.01 494.45 L 1224.98 477.48" fill="none" stroke="#000000" stroke-width="4" stroke-linejoin="round" stroke-linecap="round" stroke-miterlimit="10" transform="translate(0,500)scale(1,-1)translate(0,-500)" pointer-events="none"/><path d="M 1213.14 455.43 L 1221.62 463.91 L 1227.28 449.77 Z" fill="#000000" stroke="#000000" stroke-width="2" stroke-linejoin="round" stroke-linecap="round" stroke-miterlimit="10" transform="translate(0,500)scale(1,-1)translate(0,-500)" pointer-events="none"/><path d="M 1204.65 472.43 L 1221.62 455.46" fill="none" stroke="#000000" stroke-width="4" stroke-linejoin="round" stroke-linecap="round" stroke-miterlimit="10" transform="translate(0,500)scale(1,-1)translate(0,-500)" pointer-events="none"/><rect x="1280" y="520" width="46" height="28" fill-opacity="0" fill="#dae2f2" stroke="none" pointer-events="none"/><g fill="#000000" font-family="Arial,Helvetica" font-weight="bold" text-anchor="middle" font-size="40px"><text x="1303" y="550">LED</text></g><rect x="1080" y="540" width="86" height="28" fill-opacity="0" fill="#dae2f2" stroke="none" pointer-events="none"/><g fill="#000000" font-family="Arial,Helvetica" font-weight="bold" text-anchor="middle" font-size="24px"><text x="1123" y="562">cathode</text></g><rect x="1080" y="440" width="66" height="28" fill-opacity="0" fill="#dae2f2" stroke="none" pointer-events="none"/><g fill="#000000" font-family="Arial,Helvetica" font-weight="bold" text-anchor="middle" font-size="24px"><text x="1113" y="462">anode</text></g><rect x="1078" y="298" width="4" height="4" fill="#000000" stroke="none" pointer-events="none"/><rect x="958" y="298" width="4" height="4" fill="#000000" stroke="none" pointer-events="none"/><ellipse cx="1055" cy="300" rx="4" ry="4" fill="none" stroke="#000000" stroke-width="4" pointer-events="none"/><rect x="981.3" y="284.26" width="77.84" height="1.88" fill="none" stroke="#000000" stroke-width="2.16" pointer-events="none"/><ellipse cx="985" cy="300" rx="4" ry="4" fill="none" stroke="#000000" stroke-width="4" pointer-events="none"/><path d="M 1061 300 L 1078 300" fill="none" stroke="#000000" stroke-width="4" stroke-linecap="square" stroke-miterlimit="10" pointer-events="none"/><path d="M 962 300 L 979 300" fill="none" stroke="#000000" stroke-width="4" stroke-linecap="square" stroke-miterlimit="10" pointer-events="none"/><path d="M 1020.24 251.44 C 1020.24 283.2 1020.24 283.2 1020.24 283.2" fill="none" stroke="#000000" stroke-width="4" stroke-linecap="square" stroke-miterlimit="10" pointer-events="none"/><rect x="948" y="320" width="138" height="26" fill-opacity="0" fill="#dae2f2" stroke="none" pointer-events="none"/><g fill="#000000" font-family="Arial,Helvetica" font-weight="bold" text-anchor="middle" font-size="24px"><text x="1017" y="341">normally open</text></g><rect x="980" y="200" width="64" height="26" fill-opacity="0" fill="#dae2f2" stroke="none" pointer-events="none"/><g fill="#000000" font-family="Arial,Helvetica" font-weight="bold" text-anchor="middle" font-size="40px"><text x="1012" y="229">Switch</text></g><path d="M 860 440 L 860 300 L 960 300" fill="none" stroke="#000000" stroke-width="4" stroke-miterlimit="10" pointer-events="none"/><path d="M 1180 440 L 1180 300 L 1080 300" fill="none" stroke="#000000" stroke-width="4" stroke-miterlimit="10" pointer-events="none"/><rect x="998" y="638" width="4" height="4" fill="#000000" stroke="none" transform="rotate(90,1020,700)" pointer-events="none"/><rect x="998" y="758" width="4" height="4" fill="#000000" stroke="none" transform="rotate(90,1020,700)" pointer-events="none"/><rect x="1058" y="698" width="4" height="4" fill="#000000" stroke="none" transform="rotate(90,1020,700)" pointer-events="none"/><path d="M 1000 664 L 1014 670 L 1000 676" fill="none" stroke="#000000" stroke-width="4" stroke-linejoin="round" stroke-linecap="round" stroke-miterlimit="10" transform="rotate(90,1020,700)" pointer-events="none"/><path d="M 1000 676 L 986 682 L 1000 688" fill="none" stroke="#000000" stroke-width="4" stroke-linejoin="round" stroke-linecap="round" stroke-miterlimit="10" transform="rotate(90,1020,700)" pointer-events="none"/><path d="M 1000 688 L 1014 694 L 1000 700" fill="none" stroke="#000000" stroke-width="4" stroke-linejoin="round" stroke-linecap="round" stroke-miterlimit="10" transform="rotate(90,1020,700)" pointer-events="none"/><path d="M 1000 700 L 986 706 L 1000 712" fill="none" stroke="#000000" stroke-width="4" stroke-linejoin="round" stroke-linecap="round" stroke-miterlimit="10" transform="rotate(90,1020,700)" pointer-events="none"/><path d="M 1000 712 L 1014 718 L 1000 724" fill="none" stroke="#000000" stroke-width="4" stroke-linejoin="round" stroke-linecap="round" stroke-miterlimit="10" transform="rotate(90,1020,700)" pointer-events="none"/><path d="M 1000 724 L 986 730 L 1000 736" fill="none" stroke="#000000" stroke-width="4" stroke-linejoin="round" stroke-linecap="round" stroke-miterlimit="10" transform="rotate(90,1020,700)" pointer-events="none"/><path d="M 1000 642 L 1000 662" fill="#000000" stroke="#000000" stroke-width="4" stroke-linecap="square" stroke-miterlimit="10" transform="rotate(90,1020,700)" pointer-events="none"/><path d="M 1000 738 L 1000 758" fill="#000000" stroke="#000000" stroke-width="4" stroke-linecap="square" stroke-miterlimit="10" transform="rotate(90,1020,700)" pointer-events="none"/><path d="M 1030 700 L 1058 700" fill="#000000" stroke="#000000" stroke-width="4" stroke-linecap="square" stroke-miterlimit="10" transform="rotate(90,1020,700)" pointer-events="none"/><path d="M 1033.55 705.37 C 1033.21 705.27 1028.9 704.04 1023.97 702.64 C 1019.04 701.23 1015.01 700.05 1015.01 700.02 C 1015.01 699.99 1019.06 698.86 1024 697.5 C 1028.94 696.14 1033.26 694.95 1033.6 694.86 L 1034.21 694.69 L 1034.19 700.12 L 1034.16 705.55 L 1033.55 705.37 Z" fill="#000000" stroke="#000000" stroke-width="1.8" stroke-linejoin="round" stroke-linecap="square" stroke-miterlimit="10" transform="rotate(90,1020,700)" pointer-events="none"/><rect x="940" y="780" width="150" height="28" fill-opacity="0" fill="#dae2f2" stroke="none" pointer-events="none"/><g fill="#000000" font-family="Arial,Helvetica" font-weight="bold" text-anchor="middle" font-size="40px"><text x="1015" y="810">Potentiometer</text></g><path d="M 1080 680 L 1180 680 L 1180 560" fill="none" stroke="#000000" stroke-width="4" stroke-miterlimit="10" pointer-events="none"/><path d="M 960 680 L 860 680 L 860 540" fill="none" stroke="#000000" stroke-width="4" stroke-miterlimit="10" pointer-events="none"/></g></svg>